<?xml version="1.0" encoding="iso-8859-1"?>
<!-- Generator: Adobe Illustrator 19.0.0, SVG Export Plug-In . SVG Version: 6.00 Build 0)  -->
<svg version="1.1" id="&#x5716;&#x5C64;_1" xmlns="http://www.w3.org/2000/svg" xmlns:xlink="http://www.w3.org/1999/xlink" x="0px"
	 y="0px" viewBox="0 0 228.074 264.166" style="enable-background:new 0 0 228.074 264.166;" xml:space="preserve">
<path id="XMLID_58_" style="fill:#ECCAAE;" d="M44.053,111.495c0,0-10.039-104.043,69.383-104.043s70.349,104.043,70.349,104.043
	l-70.349,36.294L44.053,111.495z"/>
<circle id="XMLID_57_" style="fill:#442823;" cx="90.512" cy="88.292" r="10.888"/>
<circle id="XMLID_56_" style="fill:#442823;" cx="143.512" cy="88.292" r="10.888"/>
<path id="XMLID_55_" style="fill:#442823;" d="M66.434,9.872c0,0,9.318-11.493,47.002-9.678s44.338,7.259,44.338,13.308
	s-8.829,7.864-44.338,10.283c-35.509,2.42-47.343,34.21-57.89,44.762C44.999,79.1,38.004,63.103,38.004,63.103
	S42.238,31.648,66.434,9.872z"/>
<rect id="XMLID_54_" x="75.012" y="63.532" style="fill:#442823;" width="26.387" height="3.83"/>
<rect id="XMLID_53_" x="130.318" y="61.616" style="fill:#442823;" width="26.387" height="3.83"/>
<path id="XMLID_52_" style="fill:#54949F;" d="M46.436,176.777c9.676,2.512,135.692,7.372,140,0s-3-61-3-61l-69.565,38.889
	L43.644,115.36C43.644,115.36,42.482,170.403,46.436,176.777z"/>
<polygon id="XMLID_51_" style="fill:#D55342;" points="43.878,111.493 113.174,147.788 183.784,111.495 183.436,115.777 
	113.871,154.666 43.557,116.975 "/>
<path id="XMLID_50_" style="fill:#442823;" d="M46.436,176.777c0,0-2.452,10.81,0.122,14.86c2.574,4.05,137.252,4.934,139.167,1.294
	s0.711-16.154,0.711-16.154H46.436z"/>
<path id="XMLID_49_" style="fill:#442823;" d="M58.677,239.925l-7.136-14.727c27.312-13.155,34.951-34.223,34.951-34.223
	l17.217,1.733C103.709,192.708,83.206,229.24,58.677,239.925z"/>
<polygon id="XMLID_48_" style="fill:#442823;" points="142.616,264.166 128.219,264.166 126.119,190.975 140.516,190.975 "/>
<path id="XMLID_47_" style="fill:#EAC9AD;" d="M43.576,143.522c-0.216,0.311-0.432,0.621-0.647,0.931
	c-2.576,3.224-5.153,6.449-7.731,9.674c-7.953,8.131-16.537,15.443-26.329,21.348c-2.693,1.624-3.704,0.932-4.836-1.431
	c-0.976-2.039-2.027-4.068-3.292-5.934c-1.309-1.932-0.84-2.991,1.066-4.097c6.937-4.025,13.117-9.054,19.091-14.391
	c2.429-2.169,7.586-8.213,8.474-9.425c1.301-1.775,2.769-3.427,4.166-5.132C36.884,137.883,40.23,140.703,43.576,143.522z"/>
<path id="XMLID_46_" style="fill:#18637D;" d="M43.846,116.759c3.686,2.251,7.781,3.8,11.194,6.524
	c-2.669,7.399-7.148,13.773-11.463,20.239c-3.346-2.819-6.692-5.639-10.038-8.458c0.385-0.636,0.774-1.269,1.155-1.908
	c2.775-4.656,6.167-8.978,7.733-14.288C42.9,118.165,43.373,117.462,43.846,116.759z"/>
<path id="XMLID_45_" style="fill:#EAC9AD;" d="M178.415,136.693c2.383,5.757,7.49,9.656,12.076,13.777
	c8.242,7.405,17.97,12.897,28.41,17.283c2.568,1.079,4.599,1.45,5.38-1.966c0.624-2.728,2.022-5.31,3.328-7.842
	c0.776-1.504,0.7-2.337-1.137-3.055c-14.768-5.773-26.968-14.475-36.007-26.78c-0.411-0.56-1.208-0.894-1.827-1.331
	C184.754,129.676,181.558,133.161,178.415,136.693z"/>
<path id="XMLID_44_" style="fill:#18637D;" d="M178.832,138.197c3.143-3.531,6.34-7.017,10.223-9.914
	c0.246-2.673-2.174-4.424-3.065-6.71c-0.817-2.097-1.804-4.144-2.716-6.213c-5.04,1.288-9.236,5.363-13.587,8.103
	C171.463,130.026,173.77,133.094,178.832,138.197z"/>
<g id="XMLID_81_">
</g>
<g id="XMLID_82_">
</g>
<g id="XMLID_83_">
</g>
<g id="XMLID_84_">
</g>
<g id="XMLID_85_">
</g>
<g id="XMLID_86_">
</g>
<g id="XMLID_87_">
</g>
<g id="XMLID_88_">
</g>
<g id="XMLID_89_">
</g>
<g id="XMLID_90_">
</g>
<g id="XMLID_91_">
</g>
<g id="XMLID_92_">
</g>
<g id="XMLID_93_">
</g>
<g id="XMLID_94_">
</g>
<g id="XMLID_95_">
</g>
</svg>
