<?xml version="1.0" encoding="iso-8859-1"?>
<!-- Generator: Adobe Illustrator 19.0.0, SVG Export Plug-In . SVG Version: 6.00 Build 0)  -->
<svg version="1.1" id="&#x5716;&#x5C64;_1" xmlns="http://www.w3.org/2000/svg" xmlns:xlink="http://www.w3.org/1999/xlink" x="0px"
	 y="0px" viewBox="0 0 201.844 59.474" style="enable-background:new 0 0 201.844 59.474;" xml:space="preserve">
<g id="XMLID_41_">
	<path id="XMLID_42_" d="M23.69,51.567c-2.88,1.296-6.121,2.736-8.641,3.889c-0.72,0.216-1.224,0.216-1.512-0.144
		c-0.144-0.288-0.432-0.72-0.072-1.296c2.016-1.656,3.96-3.312,5.833-5.328c1.8-2.016,3.312-4.32,6.48-9.505
		c-3.601,3.096-4.608,3.888-5.761,4.608c-0.288,0.792-0.864,1.944-1.584,2.808c-0.432,0.576-0.936,0.72-1.224,0.432
		c-0.144-0.144-0.288-0.576,0-0.936c0.144-0.144,0.432-1.008,0.504-1.584c-2.592,0.648-4.608,0.72-6.121,0.072
		c-1.08-0.432-2.016-1.224-2.52-2.448c-0.288-0.576-0.36-1.224,0.432-1.728c0.936,0,1.224,0.648,1.728,1.224
		c0.648,0.792,1.296,1.224,2.232,1.44c0.936,0.216,2.232,0.144,4.392-0.432c0.072-2.52,0.288-4.104,0.288-7.128
		c-1.728,1.152-2.52,1.8-3.312,2.376c-0.792,0.504-1.584,0.937-2.592,1.152c-0.504-0.072-1.008-0.144-1.152-0.504
		c-0.216-0.36-0.144-0.576,0.288-1.008c2.52-1.512,4.608-2.952,6.841-4.68c0.144-1.8,0-3.24,0-4.752
		c0-1.152,0.144-2.304,0.648-3.457c0.504-0.432,1.08-0.648,1.584-0.72c0.792-0.144,1.728-0.072,2.952,0.144
		c0.288-0.36,0.648-1.224,0.72-1.872c0.144-0.72-0.216-1.152-1.224-0.936c-2.88,0.504-5.904,1.8-8.569,3.096
		c-0.504,0.216-1.44,0.576-2.448,0.576c-1.944,4.104-3.672,7.849-6.192,11.449c-0.504,0.72-1.44,1.368-2.088,1.368
		c-0.504-0.072-0.864-0.432-1.008-1.368c-0.072-0.576-0.072-1.08-0.072-1.656c0.144-0.288,0.504-0.504,0.72,0.288
		c0.072,0.216,0.216,0.576,0.216,1.008c3.097-4.608,4.825-8.281,6.553-11.953c1.512-3.24,3.096-6.552,4.825-9.577
		c0.936-1.656,1.872-3.24,3.24-5.833c-1.368,0.216-1.873,0.36-2.376,0.432c-0.36-0.216-0.36-0.576-0.144-1.008
		c0.792-0.864,2.592-1.44,4.104-1.728c0.648-0.648,1.224-1.584,2.088-1.944c0.648-0.288,0.864-0.144,0.936,0.144
		c0.216,0.288,0.216,1.008,0.144,1.224c-0.144,0.216-0.288,0.36-0.864,1.008c2.016,1.584,3.528,2.952,5.041,4.32
		c1.512,1.296,3.024,2.52,4.752,3.672c0.288,0.432,0.36,0.864,0.288,1.224c-0.144,0.648-0.576,1.152-1.296,1.368
		c-1.728,0.504-3.312,1.008-5.688,1.872c0.864,1.008,1.08,1.44,1.08,2.088c0,0.936-0.144,1.8-1.152,3.096
		c1.44,0.576,1.944,1.008,2.232,1.512c0.144,0.432,0.144,0.936-0.288,1.584c-0.288,0.576-1.512,1.728-2.88,2.952
		c-1.368,1.224-2.809,2.448-3.672,3.24c0,2.376,0,4.896-0.288,8.137c2.592-1.872,4.68-4.032,5.904-5.616
		c0.432-0.576,1.728-0.576,2.016-0.288c0.504,0.288,0.936,1.152,0.648,1.656c-2.304,4.392-5.257,8.497-10.009,14.041
		c2.521-1.08,4.752-2.016,6.625-2.952c2.52-1.224,4.536-2.448,6.12-3.457c0.216-0.144,0.576-0.144,0.792,0
		c0.36,0.144,0.504,0.36,0.36,0.72c-0.36,1.008-1.584,1.944-2.808,2.664C28.371,49.407,26.138,50.415,23.69,51.567z M20.666,8.651
		c-2.736,4.393-4.896,8.497-7.489,14.042c3.672-1.873,6.048-2.88,8.641-3.528l3.24-1.512c1.152-0.504,2.232-1.008,3.96-2.16
		c-2.016-1.296-3.168-2.304-4.32-3.312C23.546,11.1,22.394,10.02,20.666,8.651z M20.666,26.149
		c-0.216,0.792-0.288,1.584-0.288,2.448v2.52c1.944-1.8,2.88-2.736,3.96-3.672l0.792-0.72c-1.512-0.792-2.953-0.864-3.601-0.864
		C21.242,25.861,20.954,25.933,20.666,26.149z M56.525,45.663c-0.36-0.144-0.504-0.504,0.216-1.08
		c1.584-1.296,2.448-2.16,3.889-4.032c-2.736,0.648-3.96,0.936-5.113,0.936c-1.008,0-1.872-0.36-2.592-1.224
		c-0.648-0.72-0.937-2.16-0.864-3.816c0-1.152,0.288-2.376,0.504-3.456c0.216-1.152,0.504-2.232,1.152-4.537
		c-2.448,1.8-3.528,2.736-4.681,3.744c-1.08,0.936-2.16,2.088-3.312,3.241c-0.144,2.952-0.072,5.76-0.072,8.497
		c0,2.88-0.072,5.688-0.72,8.281c-0.72,2.736-1.8,4.752-4.248,6.265c-1.584,0.936-3.384,1.296-5.256,0.936
		c-0.864-0.216-1.944-0.792-2.953-1.656c-1.008-0.864-1.728-1.8-1.8-2.88c0-0.288,0.072-0.576,0.216-0.72
		c0.432-0.216,0.72-0.072,0.864,0.144c1.152,1.368,2.304,2.376,3.888,2.809c1.368,0.432,2.88,0.288,4.249-0.72
		c1.728-1.296,2.664-3.024,3.024-5.256c0.72-4.033,0.648-8.137,0.504-13.465c-2.736,2.952-4.608,5.185-6.409,6.985
		c-0.144,0.144-0.864,0.144-1.296-0.072c-0.648-0.504-0.792-0.936-0.504-1.296c2.376-2.592,5.112-4.896,7.489-7.489
		c0.576-1.08-0.216-1.656-0.792-1.8c-1.224-0.432-2.521-0.072-3.745,0.072c-1.944,0.144-3.528,0.144-5.544-0.216
		c-0.72-0.432-0.864-1.152-0.648-1.8c0.288-0.648,1.152-0.648,2.16-0.144c1.08,0.144,2.088,0.072,3.024,0
		c0.864-0.072,1.8-0.144,2.664-0.144c1.008,0,2.016,0.072,3.745,0.72c-0.144-2.808-0.216-5.544-0.288-7.705
		c0-0.36,0.216-1.08,0.72-1.44c1.224-1.008,2.448-1.872,3.601-2.952c0.864-0.792,1.728-1.656,2.88-3.816
		c-1.944,0.36-2.953,0.792-3.745,1.368c-0.864,0.576-1.944,1.224-2.52,1.728c-1.728,1.296-3.24,2.664-4.896,4.032
		c-1.512,1.296-3.024,2.376-4.896,2.664c-0.648,0.144-1.296-0.432-1.512-1.008c-0.072-1.08,0.36-1.224,0.648-1.224
		c1.44,0,2.809-0.792,4.104-1.872c2.088-1.8,3.745-4.104,5.185-6.409c-2.521-0.864-3.672-2.016-4.249-3.6
		c-0.504-1.512-0.432-3.384-0.288-5.688c0.144-1.873,0.432-3.816,0.288-5.689c-0.072-0.648,0.288-1.152,0.576-1.296
		c0.36-0.072,0.792,0.072,1.368,0.936c0.36,2.16,0.144,4.104-0.072,6.265c-0.216,1.728-0.576,3.96,0.432,5.473
		c0.576,0.864,1.512,1.44,2.952,1.872c1.512-2.736,2.521-5.185,2.953-7.849c0.144-0.648-0.144-1.296-0.576-1.729
		c-0.36-0.36-0.936-0.504-1.44-0.432c-0.504,0-1.368,0.432-1.873,0.576c-0.288-0.288-0.432-0.648-0.36-1.152
		c0.648-1.152,1.512-1.8,2.808-1.8c1.08,0,1.873,0.36,2.448,1.008c0.792,0.864,1.152,2.088,1.152,3.312
		c-0.072,1.368-0.576,2.809-1.08,4.032c-0.792,1.944-1.8,3.816-3.816,7.201l2.016-1.08c0.792-0.432,1.944-1.224,3.024-1.584
		c1.008-0.288,2.088-0.288,2.808,0.792c0.432,0.648,0.504,1.584,0.072,2.592c-0.36,0.936-1.224,2.016-2.232,3.024
		c-1.368,1.224-2.808,2.304-4.32,3.384c0.216,2.448,0.216,5.112,0.288,8.569c3.456-3.024,6.192-5.257,9-7.705
		c0.576-0.072,1.008-0.072,1.296,0.072c0.576,0.144,0.72,0.72,0.36,1.728c-0.144,0.576-0.36,1.152-0.504,1.728
		c-0.72,2.88-1.512,5.688-1.872,8.785c0.216,0.72,0.288,1.152,0.72,1.368c0.504,0.288,1.368,0.288,2.232,0.216
		c0.792-0.144,1.512-0.36,2.088-0.576c0.576-0.216,1.08-0.36,1.584-0.504c0.648-0.144,1.224-0.072,1.656,0.216
		c0.504,0.36,0.792,1.08,0.576,1.944c-0.432,0.936-1.008,1.8-1.656,2.52c-0.792,0.936-1.8,1.729-2.88,2.376
		C57.533,45.663,56.885,45.807,56.525,45.663z"/>
	<path id="XMLID_47_" d="M118.732,49.047c-3.672-0.648-6.913-2.448-9.793-4.968c-1.368,0.936-2.664,1.944-4.104,2.736
		c-1.44,0.792-3.024,1.368-4.896,1.224c-0.576-0.072-1.008-0.72-0.576-1.152c2.88-1.008,5.616-2.232,7.993-4.393
		c-1.8-2.304-3.601-4.608-4.825-7.2c0.36-0.576,0.72-0.576,1.08-0.432c0.36,0.216,0.36,0.288,0.72,0.288
		c1.08,0.936,1.872,1.944,2.664,2.952c0.648,0.936,1.368,1.872,2.088,2.808c3.816-3.816,6.769-8.208,8.641-12.889
		c0.288-1.08-0.432-1.944-1.224-2.088c-2.304-0.504-4.68-0.648-7.057-0.648c-2.376,0-4.752,0.072-7.201,0.144
		c-2.016,1.224-3.528,2.736-5.328,4.177c-2.232,1.728-4.537,3.312-6.697,4.968c0.432,4.249,0.576,10.657,0.432,15.409
		c-0.216,1.584-0.648,3.672-2.232,4.32c-0.432,0.072-0.936-0.072-0.936-0.432c0.504-1.081,0.864-2.232,0.864-3.385
		c-0.072-2.736-0.288-10.369-0.432-14.113c-2.592,1.944-5.185,3.96-7.633,6.048c-2.16,1.8-4.248,3.672-6.336,5.617
		c-0.936,0.864-1.8,1.8-2.376,2.952v0.792c-0.072,0.288-0.216,0.576-0.72,0.648c-0.864,0.072-1.512-0.432-1.944-1.224
		c-0.288-0.432-0.144-0.864,0-1.224l0.72-1.008c2.952-2.88,5.977-5.544,9.073-8.137c3.096-2.521,6.192-4.969,9.217-7.201
		c0-0.936,0-1.8-0.144-2.304c-2.016-0.864-4.608-0.504-6.48-0.072l0.216,0.576c0.432,0.864,1.008,1.584,0.576,2.592
		c-0.792,0.216-1.296-0.144-1.728-0.648c-2.088-2.304-3.24-6.553-3.528-9.577c-0.36-3.456,0.216-6.984,2.376-9.865
		c1.512-2.016,3.601-3.24,5.617-4.68c-0.936,0-1.944,0.144-2.88,0.216c-1.296,0.072-2.52,0.144-3.672-0.072
		c-1.512-0.288-2.808-0.936-3.672-2.304c-0.072-0.504,0.072-0.864,0.288-1.08c0.144-0.144,0.288-0.216,0.432-0.288l0.432-0.288
		c0.648,0.36,1.152,0.72,1.728,1.008c0.504,0.36,1.008,0.576,1.584,0.648c2.448,0.432,4.681,0.144,6.841-0.288
		c2.664-0.504,5.256-1.512,7.849-2.376c0.432-0.144,0.864,0.36,1.008,0.72c0.504,0.72-0.36,1.296-0.864,1.584
		c-1.152,0.504-2.448,1.008-3.744,1.656c-1.296,0.576-2.592,1.224-3.889,2.016c-2.736,1.728-5.256,4.032-6.336,6.841
		c-0.504,1.224-1.08,4.104-0.792,5.472c2.592-1.8,5.473-3.384,8.785-3.024c0.072-0.72,0.072-1.368,0.072-2.016
		c0-0.504,0-1.008-0.072-1.512c-0.072-0.864,0.216-1.152,0.576-1.224c0.576-0.072,1.224,0.288,1.728,1.08
		c0,0.144,0.072,0.432,0.072,0.72c0.144,1.44,0.144,4.321,0.072,7.273c-0.072,2.88-0.144,5.833-0.144,7.632
		c1.8-1.368,3.672-2.592,5.473-3.888c1.944-1.44,3.888-2.88,5.688-4.536c0.36-0.36,0.792-0.504,1.152-0.576
		c2.448,0,4.825-0.072,7.201-0.072c2.448,0,4.752,0.144,7.057,0.648c1.08,0.288,2.376,0.936,2.952,2.16
		c0.792,1.584,0.432,3.096-0.144,4.392c-2.016,4.464-5.544,9.145-8.856,12.241c1.944,1.728,4.176,3.024,6.552,3.816
		c2.521,0.792,5.977,1.152,8.425,0.072c0.36-0.144,0.864-0.288,1.296,0c0.288,1.152-0.504,1.8-1.296,2.232
		C123.701,49.767,120.893,49.407,118.732,49.047z M87.77,22.333c-3.096,0.072-5.76,1.296-8.208,3.024
		c0.288,1.224,0.432,2.52,0.936,3.672c2.232-0.648,5.041-0.792,7.272-0.072C87.698,27.301,87.698,23.989,87.77,22.333z"/>
	<path id="XMLID_50_" d="M177.987,57.112c-0.288-0.504-0.576-1.008-0.792-1.512c-2.52-4.464-4.536-9.145-7.345-13.465
		c-2.808,2.304-6.048,4.176-9.864,4.249c-0.288-0.288-0.648-0.288-0.648-0.936c2.665-0.72,7.129-3.312,9.361-5.4
		c-3.889-6.409-6.985-13.538-10.153-20.234l-9.505,4.824c-0.072,1.872-0.36,3.745-0.288,5.617c0.792-0.648,1.512-1.44,2.16-2.304
		c0.792-0.936,1.44-2.016,2.304-3.024c0.648-0.072,0.937,0.432,1.008,0.864c-0.576,1.44-1.44,2.736-2.448,3.888
		c-1.008,1.224-2.088,2.304-3.096,3.384c0,2.736,0.144,5.544,0.072,8.281c-0.072,2.808-0.36,5.473-1.296,7.993
		c-0.72,1.872-2.736,3.24-4.537,3.384c-3.6,0.216-6.625-1.512-9-4.104c-0.864-1.368-1.008-3.096-0.144-4.536
		c3.528-4.104,8.281-8.137,12.529-11.593c0-2.232,0.072-4.392,0.072-6.552c-3.888,1.872-7.705,4.104-11.953,5.184
		c-0.72,0.144-1.224-0.216-1.584-0.504c-0.72-0.576-0.936-1.44-0.72-2.304c0.144-0.216,0.288-0.432,0.36-0.648l0.288-0.576
		c2.304-3.24,5.113-6.048,7.921-8.785c2.808-2.664,5.688-5.329,8.208-8.281c0.072-0.36-0.144-0.648-0.36-0.72
		c-2.088,0.144-4.032,0.576-5.977,1.08c-1.944,0.432-3.96,0.792-6.121,0.936c-0.648,0-1.44-0.072-2.016-0.432
		c-0.576-0.288-0.648-0.792-0.576-1.296V9.155c0.432-0.72,0.864-0.648,1.296-0.432l0.648,0.216c0.144,0,0.36,0,0.504-0.072
		c1.152,0,2.232-0.144,3.24-0.288c1.08-0.216,2.088-0.432,3.168-0.72c2.016-0.432,4.176-0.864,6.48-0.72
		c0.864,0.144,1.728,0.576,2.088,1.368c0.576,1.08,0.072,2.016-0.648,2.808c-2.736,3.097-5.905,5.761-8.785,8.641
		c-2.664,2.664-5.184,5.4-7.272,8.353c-0.072,0.144,0,0.216,0.144,0.288c4.104-1.296,7.993-3.24,11.809-5.329
		c0.216-1.224,0.288-2.52,0.576-3.816c0.288-1.224,0.72-2.448,1.584-3.528c0.576-0.216,1.152,0.36,1.152,0.72
		c-0.144,1.296-0.504,3.745-0.648,5.329c2.232-1.08,6.049-2.952,8.353-4.176l-2.16-4.104c-0.288-0.504,0.144-0.72,0.576-0.864
		c1.008,0,1.656,0.432,2.232,1.008c0.72,0.792,1.08,2.016,1.656,2.952c0.288-0.144,0.648-0.288,0.936-0.504
		c1.152-0.576,2.232-1.368,3.672-1.152c0.504,0.432,0.504,1.008,0.288,1.368c-0.576,0.648-1.296,1.008-2.016,1.368
		c-0.648,0.36-1.368,0.576-1.944,0.936c3.024,6.553,5.832,13.177,9.648,19.37c1.296-1.44,2.089-3.168,3.024-4.824
		c1.008-1.8,2.88-4.608,4.032-5.617c0.288-0.144,0.648-0.216,0.937,0.144c0.576,0.36,0.359,1.08,0.144,1.512
		c-1.224,1.8-2.16,3.672-3.24,5.544c-1.008,1.872-2.088,3.745-3.672,5.329c3.24,5.544,5.688,11.377,8.208,17.137
		c0.145,0.432,0.072,1.081-0.504,1.081C178.708,58.12,178.348,57.616,177.987,57.112z M135.72,45.663
		c-0.288,0.936,0.216,1.656,0.864,2.376c1.728,1.152,3.457,2.376,5.688,2.304c1.512-0.072,2.592-1.512,3.168-2.88
		c1.008-3.745,0.936-8.425,0.792-12.385c-1.296,1.224-3.888,3.528-4.464,4.032C139.68,40.983,137.232,43.431,135.72,45.663z
		 M170.787,11.244c-1.225-2.52-2.593-4.896-3.889-7.272c-0.359-0.216-0.72-0.144-1.08,0c-0.216,0.144-0.432,0.216-0.647,0.288
		c-0.217,0.144-0.433,0.216-0.792,0.288c-0.433-0.576-0.217-1.008,0.144-1.512l0.288-0.36c0.504-0.576,1.152-1.44,2.088-1.656
		c0.937,0.072,1.44,0.864,1.944,1.512c1.152,1.729,2.088,3.528,2.952,5.4c0.792,1.8,1.513,3.672,2.376,5.545
		c0.576,1.296,0.792,3.024,0.288,4.464c-0.216,0.216-0.144,1.296-1.224,1.296C172.875,16.284,171.939,13.692,170.787,11.244z"/>
	<path id="XMLID_54_" d="M195.121,14.268c-0.793,3.384-0.864,6.913-0.864,10.441c-0.072,5.184,0.288,10.441,0.792,15.409
		c-0.145,0.72-0.216,1.512-1.08,1.656c-0.864-1.008-1.08-2.16-1.225-3.24c-0.576-5.257-0.936-10.657-0.792-15.985
		c0.145-4.177,0.648-8.353,1.656-12.385c0.145-0.288,0.36-1.08,1.08-1.224c0.433-0.072,1.152,0.072,1.368,0.72
		c-0.072,0.792-0.216,1.584-0.432,2.376L195.121,14.268z M192.744,51.783c-0.071-0.792,0.145-1.368,0.792-1.728
		c0.721-0.144,1.225,0.504,1.368,0.936c0.217,0.792,0.576,1.44,1.009,2.16c0.863,1.224,1.8,2.304,2.664,3.528
		c0.071,0.504-0.504,0.936-0.864,0.864C195.192,56.752,193.393,54.087,192.744,51.783z"/>
</g>
<g id="XMLID_1_">
</g>
<g id="XMLID_57_">
</g>
<g id="XMLID_58_">
</g>
<g id="XMLID_59_">
</g>
<g id="XMLID_60_">
</g>
<g id="XMLID_61_">
</g>
<g id="XMLID_62_">
</g>
<g id="XMLID_63_">
</g>
<g id="XMLID_64_">
</g>
<g id="XMLID_65_">
</g>
<g id="XMLID_66_">
</g>
<g id="XMLID_67_">
</g>
<g id="XMLID_68_">
</g>
<g id="XMLID_69_">
</g>
<g id="XMLID_70_">
</g>
</svg>
